<?xml version="1.0" encoding="UTF-8"?>
<svg width="407px" height="589px" viewBox="0 0 407 589" version="1.1" xmlns="http://www.w3.org/2000/svg" xmlns:xlink="http://www.w3.org/1999/xlink">
    <!-- Generator: sketchtool 63.1 (101010) - https://sketch.com -->
    <title>B833E383-3401-482D-90A0-C9B220707934</title>
    <desc>Created with sketchtool.</desc>
    <defs>
        <linearGradient x1="98.3532183%" y1="135.071989%" x2="19.1155607%" y2="-11.0687275%" id="linearGradient-1">
            <stop stop-color="#ED88FF" offset="0%"></stop>
            <stop stop-color="#2A74F2" offset="100%"></stop>
        </linearGradient>
    </defs>
    <g id="Page-1" stroke="none" stroke-width="1" fill="none" fill-rule="evenodd" opacity="0.100000001">
        <g id="special-offer" transform="translate(0.000000, -138.000000)" fill="url(#linearGradient-1)">
            <path d="M317.49173,444.566303 L317.49173,444.566303 C302.910703,320.78393 263.787189,200.708469 212.856253,123.409466 C144.273913,19.0346458 73.1718099,19.8286709 25.6472197,38.8545655 C-38.8941676,64.5704507 -95.3349846,131.922205 -137.295566,187.7255 L-137.758455,188.352824 C-180.038206,246.897919 -225.574984,317.903944 -242.748566,400.671191 C-259.731766,482.506227 -242.074763,564.117532 -190.225513,643.305086 C-137.508346,723.473108 -56.7396867,790.625259 25.7946725,822.921463 C58.350006,835.704829 89.6491912,842 118.882171,842 C177.437722,842 227.700454,816.729383 263.090988,767.732331 C313.837141,699.612872 333.664873,581.858071 317.49173,444.566303" id="Mask-Copy-3" transform="translate(37.000000, 435.500000) rotate(113.000000) translate(-37.000000, -435.500000) "></path>
        </g>
    </g>
</svg>